<?xml version="1.0" encoding="UTF-8" standalone="no"?>
<!DOCTYPE svg PUBLIC "-//W3C//DTD SVG 1.1//EN"
 "http://www.w3.org/Graphics/SVG/1.1/DTD/svg11.dtd">
<!-- Generated by graphviz version 2.38.0 (20140413.2041)
 -->
<!-- Title: simpleExample Pages: 1 -->
<svg width="428pt" height="288pt"
 viewBox="0.00 0.00 428.11 288.00" xmlns="http://www.w3.org/2000/svg" xmlns:xlink="http://www.w3.org/1999/xlink">
<g id="graph0" class="graph" transform="scale(0.972973 0.972973) rotate(0) translate(4 292)">
<title>simpleExample</title>
<g id="a_graph0"><a xlink:title=" ">
<polygon fill="white" stroke="none" points="-4,4 -4,-292 436,-292 436,4 -4,4"/>
</a>
</g>
<!-- 1 -->
<g id="node1" class="node"><title>1</title>
<ellipse fill="#5677fc" stroke="#5677fc" cx="99.4111" cy="-196.639" rx="32.5482" ry="32.5482"/>
<text text-anchor="middle" x="99.4111" y="-190.639" font-family="Helvetica,sans-Serif" font-size="20.00">W1</text>
</g>
<!-- 2 -->
<g id="node2" class="node"><title>2</title>
<ellipse fill="#5677fc" stroke="#5677fc" cx="331.734" cy="-194.093" rx="32.5482" ry="32.5482"/>
<text text-anchor="middle" x="331.734" y="-188.093" font-family="Helvetica,sans-Serif" font-size="20.00">W2</text>
</g>
<!-- 1&#45;&#45;2 -->
<g id="edge1" class="edge"><title>1&#45;&#45;2</title>
<g id="a_edge1"><a xlink:title=" ">
<path fill="none" stroke="black" stroke-width="3" d="M132.205,-196.28C176.482,-195.794 254.916,-194.935 299.108,-194.45"/>
</a>
</g>
<text text-anchor="middle" x="203.568" y="-199.865" font-family="Helvetica,sans-Serif" font-size="15.00">y12</text>
</g>
<!-- 3 -->
<g id="node3" class="node"><title>3</title>
<polygon fill="#bdbdbd" stroke="#bdbdbd" points="230.254,-67.7949 194.254,-67.7949 194.254,-31.7949 230.254,-31.7949 230.254,-67.7949"/>
<text text-anchor="middle" x="212.254" y="-43.7949" font-family="Helvetica,sans-Serif" font-size="20.00">S</text>
</g>
<!-- 1&#45;&#45;3 -->
<g id="edge2" class="edge"><title>1&#45;&#45;3</title>
<g id="a_edge2"><a xlink:title=" ">
<path fill="none" stroke="black" stroke-width="3" d="M119.325,-170.725C141.976,-141.248 178.385,-93.8694 198.237,-68.0347"/>
</a>
</g>
<text text-anchor="middle" x="145.86" y="-123.88" font-family="Helvetica,sans-Serif" font-size="15.00">y1S</text>
</g>
<!-- 2&#45;&#45;3 -->
<g id="edge3" class="edge"><title>2&#45;&#45;3</title>
<g id="a_edge3"><a xlink:title=" ">
<path fill="none" stroke="black" stroke-width="3" d="M310.922,-168.958C286.987,-140.051 248.284,-93.3088 227.167,-67.8058"/>
</a>
</g>
<text text-anchor="middle" x="256.124" y="-122.882" font-family="Helvetica,sans-Serif" font-size="15.00">y2S</text>
</g>
</g>
</svg>
